<mxfile host="app.diagrams.net" modified="2023-06-13T09:34:25.695Z" agent="Mozilla/5.0 (Macintosh; Intel Mac OS X 10_15_7) AppleWebKit/537.36 (KHTML, like Gecko) Chrome/112.0.0.0 Safari/537.36" etag="PVeVnbm-8Y0Y1026BJbd" version="21.3.2" type="github">
  <diagram name="Page-1" id="UDhhqJxpYbAcWsfHzgjm">
    <mxGraphModel dx="1865" dy="998" grid="1" gridSize="10" guides="1" tooltips="1" connect="1" arrows="1" fold="1" page="1" pageScale="1" pageWidth="827" pageHeight="1169" math="0" shadow="0">
      <root>
        <mxCell id="0" />
        <mxCell id="1" parent="0" />
        <mxCell id="UAQwls65sq5eITKKGj8J-15" value="" style="rounded=0;whiteSpace=wrap;html=1;fillColor=none;dashed=1;" vertex="1" parent="1">
          <mxGeometry x="140" y="400" width="520" height="160" as="geometry" />
        </mxCell>
        <mxCell id="UAQwls65sq5eITKKGj8J-1" value="" style="rounded=0;whiteSpace=wrap;html=1;fillColor=none;dashed=1;" vertex="1" parent="1">
          <mxGeometry x="200" y="100" width="400" height="160" as="geometry" />
        </mxCell>
        <mxCell id="UAQwls65sq5eITKKGj8J-2" value="prod cluster" style="text;html=1;strokeColor=none;fillColor=none;align=center;verticalAlign=middle;whiteSpace=wrap;rounded=0;" vertex="1" parent="1">
          <mxGeometry x="360" y="60" width="80" height="30" as="geometry" />
        </mxCell>
        <mxCell id="UAQwls65sq5eITKKGj8J-3" value="Storage Account" style="shape=cylinder3;whiteSpace=wrap;html=1;boundedLbl=1;backgroundOutline=1;size=15;" vertex="1" parent="1">
          <mxGeometry x="474" y="140" width="60" height="80" as="geometry" />
        </mxCell>
        <mxCell id="UAQwls65sq5eITKKGj8J-4" value="Mongo DB" style="shape=cylinder3;whiteSpace=wrap;html=1;boundedLbl=1;backgroundOutline=1;size=15;" vertex="1" parent="1">
          <mxGeometry x="390" y="140" width="60" height="80" as="geometry" />
        </mxCell>
        <mxCell id="UAQwls65sq5eITKKGj8J-5" value="AKS Cluster" style="rounded=1;whiteSpace=wrap;html=1;" vertex="1" parent="1">
          <mxGeometry x="240" y="140" width="120" height="80" as="geometry" />
        </mxCell>
        <mxCell id="UAQwls65sq5eITKKGj8J-6" value="" style="rounded=0;whiteSpace=wrap;html=1;dashed=1;opacity=50;fillColor=#f5f5f5;fontColor=#333333;strokeColor=#666666;" vertex="1" parent="1">
          <mxGeometry x="140" y="600" width="200" height="160" as="geometry" />
        </mxCell>
        <mxCell id="UAQwls65sq5eITKKGj8J-7" value="prod a" style="text;html=1;strokeColor=none;fillColor=none;align=center;verticalAlign=middle;whiteSpace=wrap;rounded=0;" vertex="1" parent="1">
          <mxGeometry x="200" y="570" width="80" height="30" as="geometry" />
        </mxCell>
        <mxCell id="UAQwls65sq5eITKKGj8J-8" value="Persistent Storage Account" style="shape=cylinder3;whiteSpace=wrap;html=1;boundedLbl=1;backgroundOutline=1;size=15;" vertex="1" parent="1">
          <mxGeometry x="270" y="440" width="60" height="80" as="geometry" />
        </mxCell>
        <mxCell id="UAQwls65sq5eITKKGj8J-9" value="Mongo DB" style="shape=cylinder3;whiteSpace=wrap;html=1;boundedLbl=1;backgroundOutline=1;size=15;" vertex="1" parent="1">
          <mxGeometry x="190" y="440" width="60" height="80" as="geometry" />
        </mxCell>
        <mxCell id="UAQwls65sq5eITKKGj8J-11" value="" style="rounded=0;whiteSpace=wrap;html=1;dashed=1;opacity=50;fillColor=#f5f5f5;fontColor=#333333;strokeColor=#666666;" vertex="1" parent="1">
          <mxGeometry x="190" y="630" width="200" height="160" as="geometry" />
        </mxCell>
        <mxCell id="UAQwls65sq5eITKKGj8J-12" value="prod b" style="text;html=1;strokeColor=none;fillColor=none;align=center;verticalAlign=middle;whiteSpace=wrap;rounded=0;" vertex="1" parent="1">
          <mxGeometry x="250" y="600" width="80" height="30" as="geometry" />
        </mxCell>
        <mxCell id="UAQwls65sq5eITKKGj8J-14" value="usage: make apply flag=-target=module.azure.cluster[1]" style="text;html=1;strokeColor=none;fillColor=none;align=center;verticalAlign=middle;whiteSpace=wrap;rounded=0;" vertex="1" parent="1">
          <mxGeometry x="690" y="700" width="440" height="30" as="geometry" />
        </mxCell>
        <mxCell id="UAQwls65sq5eITKKGj8J-16" value="backing infrastructure&amp;nbsp;" style="text;html=1;strokeColor=none;fillColor=none;align=center;verticalAlign=middle;whiteSpace=wrap;rounded=0;" vertex="1" parent="1">
          <mxGeometry x="300" y="370" width="200" height="30" as="geometry" />
        </mxCell>
        <mxCell id="UAQwls65sq5eITKKGj8J-17" value="Application Gateway" style="rounded=1;whiteSpace=wrap;html=1;" vertex="1" parent="1">
          <mxGeometry x="440" y="440" width="160" height="80" as="geometry" />
        </mxCell>
        <mxCell id="UAQwls65sq5eITKKGj8J-18" value="" style="rounded=0;whiteSpace=wrap;html=1;dashed=1;opacity=50;fillColor=#f5f5f5;fontColor=#333333;strokeColor=#666666;" vertex="1" parent="1">
          <mxGeometry x="240" y="660" width="300" height="160" as="geometry" />
        </mxCell>
        <mxCell id="UAQwls65sq5eITKKGj8J-19" value="prod &lt;i&gt;n&lt;/i&gt;" style="text;html=1;strokeColor=none;fillColor=none;align=center;verticalAlign=middle;whiteSpace=wrap;rounded=0;" vertex="1" parent="1">
          <mxGeometry x="300" y="630" width="80" height="30" as="geometry" />
        </mxCell>
        <mxCell id="UAQwls65sq5eITKKGj8J-20" value="AKS Cluster" style="rounded=1;whiteSpace=wrap;html=1;" vertex="1" parent="1">
          <mxGeometry x="280" y="700" width="120" height="80" as="geometry" />
        </mxCell>
        <mxCell id="UAQwls65sq5eITKKGj8J-21" value="" style="shape=flexArrow;endArrow=classic;html=1;rounded=0;endWidth=48;endSize=15.33;" edge="1" parent="1">
          <mxGeometry width="50" height="50" relative="1" as="geometry">
            <mxPoint x="550" y="720" as="sourcePoint" />
            <mxPoint x="600" y="570" as="targetPoint" />
            <Array as="points">
              <mxPoint x="600" y="720" />
            </Array>
          </mxGeometry>
        </mxCell>
        <mxCell id="UAQwls65sq5eITKKGj8J-22" value="Storage Account" style="shape=cylinder3;whiteSpace=wrap;html=1;boundedLbl=1;backgroundOutline=1;size=15;" vertex="1" parent="1">
          <mxGeometry x="440" y="700" width="60" height="80" as="geometry" />
        </mxCell>
        <mxCell id="UAQwls65sq5eITKKGj8J-24" value="" style="rounded=0;whiteSpace=wrap;html=1;fillColor=none;dashed=1;" vertex="1" parent="1">
          <mxGeometry x="200" y="1240" width="360" height="200" as="geometry" />
        </mxCell>
        <mxCell id="UAQwls65sq5eITKKGj8J-25" value="Application Gateway" style="text;html=1;strokeColor=none;fillColor=none;align=center;verticalAlign=middle;whiteSpace=wrap;rounded=0;" vertex="1" parent="1">
          <mxGeometry x="280" y="1210" width="200" height="30" as="geometry" />
        </mxCell>
        <mxCell id="UAQwls65sq5eITKKGj8J-31" style="edgeStyle=orthogonalEdgeStyle;rounded=0;orthogonalLoop=1;jettySize=auto;html=1;entryX=0.5;entryY=0;entryDx=0;entryDy=0;" edge="1" parent="1" source="UAQwls65sq5eITKKGj8J-26" target="UAQwls65sq5eITKKGj8J-28">
          <mxGeometry relative="1" as="geometry" />
        </mxCell>
        <mxCell id="UAQwls65sq5eITKKGj8J-33" value="controller-proda.brighter.ai/health" style="edgeLabel;html=1;align=center;verticalAlign=middle;resizable=0;points=[];" vertex="1" connectable="0" parent="UAQwls65sq5eITKKGj8J-31">
          <mxGeometry x="-0.1872" y="2" relative="1" as="geometry">
            <mxPoint x="-2" y="-33" as="offset" />
          </mxGeometry>
        </mxCell>
        <mxCell id="UAQwls65sq5eITKKGj8J-26" value="Health Check Prod A" style="rounded=1;whiteSpace=wrap;html=1;" vertex="1" parent="1">
          <mxGeometry x="240" y="1360" width="120" height="60" as="geometry" />
        </mxCell>
        <mxCell id="UAQwls65sq5eITKKGj8J-32" style="edgeStyle=orthogonalEdgeStyle;rounded=0;orthogonalLoop=1;jettySize=auto;html=1;entryX=0.5;entryY=0;entryDx=0;entryDy=0;" edge="1" parent="1" source="UAQwls65sq5eITKKGj8J-27" target="UAQwls65sq5eITKKGj8J-29">
          <mxGeometry relative="1" as="geometry" />
        </mxCell>
        <mxCell id="UAQwls65sq5eITKKGj8J-34" value="controller-prodb.brighter.ai/health" style="edgeLabel;html=1;align=center;verticalAlign=middle;resizable=0;points=[];" vertex="1" connectable="0" parent="UAQwls65sq5eITKKGj8J-32">
          <mxGeometry x="-0.1744" y="1" relative="1" as="geometry">
            <mxPoint x="-1" y="-14" as="offset" />
          </mxGeometry>
        </mxCell>
        <mxCell id="UAQwls65sq5eITKKGj8J-27" value="Health Check Prod B" style="rounded=1;whiteSpace=wrap;html=1;" vertex="1" parent="1">
          <mxGeometry x="400" y="1360" width="120" height="60" as="geometry" />
        </mxCell>
        <mxCell id="UAQwls65sq5eITKKGj8J-59" value="" style="edgeStyle=orthogonalEdgeStyle;rounded=0;orthogonalLoop=1;jettySize=auto;html=1;" edge="1" parent="1" source="UAQwls65sq5eITKKGj8J-28" target="UAQwls65sq5eITKKGj8J-57">
          <mxGeometry relative="1" as="geometry" />
        </mxCell>
        <mxCell id="UAQwls65sq5eITKKGj8J-28" value="Prod A Ingress" style="rounded=1;whiteSpace=wrap;html=1;" vertex="1" parent="1">
          <mxGeometry x="240" y="1600" width="120" height="60" as="geometry" />
        </mxCell>
        <mxCell id="UAQwls65sq5eITKKGj8J-60" value="" style="edgeStyle=orthogonalEdgeStyle;rounded=0;orthogonalLoop=1;jettySize=auto;html=1;" edge="1" parent="1" source="UAQwls65sq5eITKKGj8J-29" target="UAQwls65sq5eITKKGj8J-58">
          <mxGeometry relative="1" as="geometry" />
        </mxCell>
        <mxCell id="UAQwls65sq5eITKKGj8J-29" value="Prod B Ingress" style="rounded=1;whiteSpace=wrap;html=1;dashed=1;fillColor=none;" vertex="1" parent="1">
          <mxGeometry x="400" y="1600" width="120" height="60" as="geometry" />
        </mxCell>
        <mxCell id="UAQwls65sq5eITKKGj8J-36" style="edgeStyle=orthogonalEdgeStyle;rounded=0;orthogonalLoop=1;jettySize=auto;html=1;entryX=0.5;entryY=0;entryDx=0;entryDy=0;" edge="1" parent="1" source="UAQwls65sq5eITKKGj8J-35" target="UAQwls65sq5eITKKGj8J-27">
          <mxGeometry relative="1" as="geometry">
            <Array as="points">
              <mxPoint x="460" y="1290" />
            </Array>
          </mxGeometry>
        </mxCell>
        <mxCell id="UAQwls65sq5eITKKGj8J-37" style="edgeStyle=orthogonalEdgeStyle;rounded=0;orthogonalLoop=1;jettySize=auto;html=1;" edge="1" parent="1" source="UAQwls65sq5eITKKGj8J-35" target="UAQwls65sq5eITKKGj8J-26">
          <mxGeometry relative="1" as="geometry">
            <Array as="points">
              <mxPoint x="300" y="1290" />
            </Array>
          </mxGeometry>
        </mxCell>
        <mxCell id="UAQwls65sq5eITKKGj8J-35" value="Load Balancer" style="rounded=1;whiteSpace=wrap;html=1;" vertex="1" parent="1">
          <mxGeometry x="320" y="1260" width="120" height="60" as="geometry" />
        </mxCell>
        <mxCell id="UAQwls65sq5eITKKGj8J-38" value="" style="verticalLabelPosition=bottom;verticalAlign=top;html=1;shape=mxgraph.basic.tick;fillColor=#d5e8d4;strokeColor=#82b366;" vertex="1" parent="1">
          <mxGeometry x="250" y="1520" width="40" height="40" as="geometry" />
        </mxCell>
        <mxCell id="UAQwls65sq5eITKKGj8J-41" value="" style="verticalLabelPosition=bottom;verticalAlign=top;html=1;shape=mxgraph.basic.x;fillColor=#f8cecc;strokeColor=#b85450;" vertex="1" parent="1">
          <mxGeometry x="410" y="1520" width="40" height="40" as="geometry" />
        </mxCell>
        <mxCell id="UAQwls65sq5eITKKGj8J-57" value="Prod A Workloads" style="rounded=1;whiteSpace=wrap;html=1;" vertex="1" parent="1">
          <mxGeometry x="240" y="1700" width="120" height="60" as="geometry" />
        </mxCell>
        <mxCell id="UAQwls65sq5eITKKGj8J-58" value="Prod B Workloads" style="rounded=1;whiteSpace=wrap;html=1;dashed=1;fillColor=none;" vertex="1" parent="1">
          <mxGeometry x="400" y="1700" width="120" height="60" as="geometry" />
        </mxCell>
        <mxCell id="UAQwls65sq5eITKKGj8J-61" value="" style="rounded=0;whiteSpace=wrap;html=1;fillColor=none;dashed=1;" vertex="1" parent="1">
          <mxGeometry x="640" y="1240" width="360" height="200" as="geometry" />
        </mxCell>
        <mxCell id="UAQwls65sq5eITKKGj8J-62" value="Application Gateway" style="text;html=1;strokeColor=none;fillColor=none;align=center;verticalAlign=middle;whiteSpace=wrap;rounded=0;" vertex="1" parent="1">
          <mxGeometry x="720" y="1210" width="200" height="30" as="geometry" />
        </mxCell>
        <mxCell id="UAQwls65sq5eITKKGj8J-63" style="edgeStyle=orthogonalEdgeStyle;rounded=0;orthogonalLoop=1;jettySize=auto;html=1;entryX=0.5;entryY=0;entryDx=0;entryDy=0;" edge="1" parent="1" source="UAQwls65sq5eITKKGj8J-65" target="UAQwls65sq5eITKKGj8J-70">
          <mxGeometry relative="1" as="geometry" />
        </mxCell>
        <mxCell id="UAQwls65sq5eITKKGj8J-64" value="controller-proda.brighter.ai/health" style="edgeLabel;html=1;align=center;verticalAlign=middle;resizable=0;points=[];" vertex="1" connectable="0" parent="UAQwls65sq5eITKKGj8J-63">
          <mxGeometry x="-0.1872" y="2" relative="1" as="geometry">
            <mxPoint x="-2" y="-33" as="offset" />
          </mxGeometry>
        </mxCell>
        <mxCell id="UAQwls65sq5eITKKGj8J-65" value="Health Check Prod A" style="rounded=1;whiteSpace=wrap;html=1;" vertex="1" parent="1">
          <mxGeometry x="680" y="1360" width="120" height="60" as="geometry" />
        </mxCell>
        <mxCell id="UAQwls65sq5eITKKGj8J-66" style="edgeStyle=orthogonalEdgeStyle;rounded=0;orthogonalLoop=1;jettySize=auto;html=1;entryX=0.5;entryY=0;entryDx=0;entryDy=0;" edge="1" parent="1" source="UAQwls65sq5eITKKGj8J-68" target="UAQwls65sq5eITKKGj8J-72">
          <mxGeometry relative="1" as="geometry" />
        </mxCell>
        <mxCell id="UAQwls65sq5eITKKGj8J-67" value="controller-prodb.brighter.ai/health" style="edgeLabel;html=1;align=center;verticalAlign=middle;resizable=0;points=[];" vertex="1" connectable="0" parent="UAQwls65sq5eITKKGj8J-66">
          <mxGeometry x="-0.1744" y="1" relative="1" as="geometry">
            <mxPoint x="-1" y="-14" as="offset" />
          </mxGeometry>
        </mxCell>
        <mxCell id="UAQwls65sq5eITKKGj8J-68" value="Health Check Prod B" style="rounded=1;whiteSpace=wrap;html=1;" vertex="1" parent="1">
          <mxGeometry x="840" y="1360" width="120" height="60" as="geometry" />
        </mxCell>
        <mxCell id="UAQwls65sq5eITKKGj8J-69" value="" style="edgeStyle=orthogonalEdgeStyle;rounded=0;orthogonalLoop=1;jettySize=auto;html=1;" edge="1" parent="1" source="UAQwls65sq5eITKKGj8J-70" target="UAQwls65sq5eITKKGj8J-78">
          <mxGeometry relative="1" as="geometry" />
        </mxCell>
        <mxCell id="UAQwls65sq5eITKKGj8J-70" value="Prod A Ingress" style="rounded=1;whiteSpace=wrap;html=1;" vertex="1" parent="1">
          <mxGeometry x="680" y="1600" width="120" height="60" as="geometry" />
        </mxCell>
        <mxCell id="UAQwls65sq5eITKKGj8J-71" value="" style="edgeStyle=orthogonalEdgeStyle;rounded=0;orthogonalLoop=1;jettySize=auto;html=1;" edge="1" parent="1" source="UAQwls65sq5eITKKGj8J-72" target="UAQwls65sq5eITKKGj8J-79">
          <mxGeometry relative="1" as="geometry" />
        </mxCell>
        <mxCell id="UAQwls65sq5eITKKGj8J-72" value="Prod B Ingress" style="rounded=1;whiteSpace=wrap;html=1;" vertex="1" parent="1">
          <mxGeometry x="840" y="1600" width="120" height="60" as="geometry" />
        </mxCell>
        <mxCell id="UAQwls65sq5eITKKGj8J-73" style="edgeStyle=orthogonalEdgeStyle;rounded=0;orthogonalLoop=1;jettySize=auto;html=1;entryX=0.5;entryY=0;entryDx=0;entryDy=0;" edge="1" parent="1" source="UAQwls65sq5eITKKGj8J-75" target="UAQwls65sq5eITKKGj8J-68">
          <mxGeometry relative="1" as="geometry">
            <Array as="points">
              <mxPoint x="900" y="1290" />
            </Array>
          </mxGeometry>
        </mxCell>
        <mxCell id="UAQwls65sq5eITKKGj8J-74" style="edgeStyle=orthogonalEdgeStyle;rounded=0;orthogonalLoop=1;jettySize=auto;html=1;" edge="1" parent="1" source="UAQwls65sq5eITKKGj8J-75" target="UAQwls65sq5eITKKGj8J-65">
          <mxGeometry relative="1" as="geometry">
            <Array as="points">
              <mxPoint x="740" y="1290" />
            </Array>
          </mxGeometry>
        </mxCell>
        <mxCell id="UAQwls65sq5eITKKGj8J-75" value="Load Balancer" style="rounded=1;whiteSpace=wrap;html=1;" vertex="1" parent="1">
          <mxGeometry x="760" y="1260" width="120" height="60" as="geometry" />
        </mxCell>
        <mxCell id="UAQwls65sq5eITKKGj8J-76" value="" style="verticalLabelPosition=bottom;verticalAlign=top;html=1;shape=mxgraph.basic.tick;fillColor=#d5e8d4;strokeColor=#82b366;" vertex="1" parent="1">
          <mxGeometry x="690" y="1520" width="40" height="40" as="geometry" />
        </mxCell>
        <mxCell id="UAQwls65sq5eITKKGj8J-78" value="Prod A Workloads" style="rounded=1;whiteSpace=wrap;html=1;" vertex="1" parent="1">
          <mxGeometry x="680" y="1700" width="120" height="60" as="geometry" />
        </mxCell>
        <mxCell id="UAQwls65sq5eITKKGj8J-79" value="Prod B Workloads" style="rounded=1;whiteSpace=wrap;html=1;" vertex="1" parent="1">
          <mxGeometry x="840" y="1700" width="120" height="60" as="geometry" />
        </mxCell>
        <mxCell id="UAQwls65sq5eITKKGj8J-80" value="" style="rounded=0;whiteSpace=wrap;html=1;fillColor=none;dashed=1;" vertex="1" parent="1">
          <mxGeometry x="1080" y="1240" width="360" height="200" as="geometry" />
        </mxCell>
        <mxCell id="UAQwls65sq5eITKKGj8J-81" value="Application Gateway" style="text;html=1;strokeColor=none;fillColor=none;align=center;verticalAlign=middle;whiteSpace=wrap;rounded=0;" vertex="1" parent="1">
          <mxGeometry x="1160" y="1210" width="200" height="30" as="geometry" />
        </mxCell>
        <mxCell id="UAQwls65sq5eITKKGj8J-82" style="edgeStyle=orthogonalEdgeStyle;rounded=0;orthogonalLoop=1;jettySize=auto;html=1;entryX=0.5;entryY=0;entryDx=0;entryDy=0;" edge="1" parent="1" source="UAQwls65sq5eITKKGj8J-84" target="UAQwls65sq5eITKKGj8J-89">
          <mxGeometry relative="1" as="geometry" />
        </mxCell>
        <mxCell id="UAQwls65sq5eITKKGj8J-83" value="controller-proda.brighter.ai/health" style="edgeLabel;html=1;align=center;verticalAlign=middle;resizable=0;points=[];" vertex="1" connectable="0" parent="UAQwls65sq5eITKKGj8J-82">
          <mxGeometry x="-0.1872" y="2" relative="1" as="geometry">
            <mxPoint x="-2" y="-33" as="offset" />
          </mxGeometry>
        </mxCell>
        <mxCell id="UAQwls65sq5eITKKGj8J-84" value="Health Check Prod A" style="rounded=1;whiteSpace=wrap;html=1;" vertex="1" parent="1">
          <mxGeometry x="1120" y="1360" width="120" height="60" as="geometry" />
        </mxCell>
        <mxCell id="UAQwls65sq5eITKKGj8J-85" style="edgeStyle=orthogonalEdgeStyle;rounded=0;orthogonalLoop=1;jettySize=auto;html=1;entryX=0.5;entryY=0;entryDx=0;entryDy=0;" edge="1" parent="1" source="UAQwls65sq5eITKKGj8J-87" target="UAQwls65sq5eITKKGj8J-91">
          <mxGeometry relative="1" as="geometry" />
        </mxCell>
        <mxCell id="UAQwls65sq5eITKKGj8J-86" value="controller-prodb.brighter.ai/health" style="edgeLabel;html=1;align=center;verticalAlign=middle;resizable=0;points=[];" vertex="1" connectable="0" parent="UAQwls65sq5eITKKGj8J-85">
          <mxGeometry x="-0.1744" y="1" relative="1" as="geometry">
            <mxPoint x="-1" y="-14" as="offset" />
          </mxGeometry>
        </mxCell>
        <mxCell id="UAQwls65sq5eITKKGj8J-87" value="Health Check Prod B" style="rounded=1;whiteSpace=wrap;html=1;" vertex="1" parent="1">
          <mxGeometry x="1280" y="1360" width="120" height="60" as="geometry" />
        </mxCell>
        <mxCell id="UAQwls65sq5eITKKGj8J-88" value="" style="edgeStyle=orthogonalEdgeStyle;rounded=0;orthogonalLoop=1;jettySize=auto;html=1;" edge="1" parent="1" source="UAQwls65sq5eITKKGj8J-89" target="UAQwls65sq5eITKKGj8J-97">
          <mxGeometry relative="1" as="geometry" />
        </mxCell>
        <mxCell id="UAQwls65sq5eITKKGj8J-89" value="Prod A Ingress" style="rounded=1;whiteSpace=wrap;html=1;fillColor=none;dashed=1;" vertex="1" parent="1">
          <mxGeometry x="1120" y="1600" width="120" height="60" as="geometry" />
        </mxCell>
        <mxCell id="UAQwls65sq5eITKKGj8J-90" value="" style="edgeStyle=orthogonalEdgeStyle;rounded=0;orthogonalLoop=1;jettySize=auto;html=1;" edge="1" parent="1" source="UAQwls65sq5eITKKGj8J-91" target="UAQwls65sq5eITKKGj8J-98">
          <mxGeometry relative="1" as="geometry" />
        </mxCell>
        <mxCell id="UAQwls65sq5eITKKGj8J-91" value="Prod B Ingress" style="rounded=1;whiteSpace=wrap;html=1;" vertex="1" parent="1">
          <mxGeometry x="1280" y="1600" width="120" height="60" as="geometry" />
        </mxCell>
        <mxCell id="UAQwls65sq5eITKKGj8J-92" style="edgeStyle=orthogonalEdgeStyle;rounded=0;orthogonalLoop=1;jettySize=auto;html=1;entryX=0.5;entryY=0;entryDx=0;entryDy=0;" edge="1" parent="1" source="UAQwls65sq5eITKKGj8J-94" target="UAQwls65sq5eITKKGj8J-87">
          <mxGeometry relative="1" as="geometry">
            <Array as="points">
              <mxPoint x="1340" y="1290" />
            </Array>
          </mxGeometry>
        </mxCell>
        <mxCell id="UAQwls65sq5eITKKGj8J-93" style="edgeStyle=orthogonalEdgeStyle;rounded=0;orthogonalLoop=1;jettySize=auto;html=1;" edge="1" parent="1" source="UAQwls65sq5eITKKGj8J-94" target="UAQwls65sq5eITKKGj8J-84">
          <mxGeometry relative="1" as="geometry">
            <Array as="points">
              <mxPoint x="1180" y="1290" />
            </Array>
          </mxGeometry>
        </mxCell>
        <mxCell id="UAQwls65sq5eITKKGj8J-94" value="Load Balancer" style="rounded=1;whiteSpace=wrap;html=1;" vertex="1" parent="1">
          <mxGeometry x="1200" y="1260" width="120" height="60" as="geometry" />
        </mxCell>
        <mxCell id="UAQwls65sq5eITKKGj8J-97" value="Prod A Workloads" style="rounded=1;whiteSpace=wrap;html=1;" vertex="1" parent="1">
          <mxGeometry x="1120" y="1700" width="120" height="60" as="geometry" />
        </mxCell>
        <mxCell id="UAQwls65sq5eITKKGj8J-98" value="Prod B Workloads" style="rounded=1;whiteSpace=wrap;html=1;" vertex="1" parent="1">
          <mxGeometry x="1280" y="1700" width="120" height="60" as="geometry" />
        </mxCell>
        <mxCell id="UAQwls65sq5eITKKGj8J-99" value="" style="verticalLabelPosition=bottom;verticalAlign=top;html=1;shape=mxgraph.basic.tick;fillColor=#d5e8d4;strokeColor=#82b366;" vertex="1" parent="1">
          <mxGeometry x="850" y="1520" width="40" height="40" as="geometry" />
        </mxCell>
        <mxCell id="UAQwls65sq5eITKKGj8J-100" value="" style="rounded=0;whiteSpace=wrap;html=1;fillColor=none;dashed=1;" vertex="1" parent="1">
          <mxGeometry x="1520" y="1240" width="360" height="200" as="geometry" />
        </mxCell>
        <mxCell id="UAQwls65sq5eITKKGj8J-101" value="Application Gateway" style="text;html=1;strokeColor=none;fillColor=none;align=center;verticalAlign=middle;whiteSpace=wrap;rounded=0;" vertex="1" parent="1">
          <mxGeometry x="1600" y="1210" width="200" height="30" as="geometry" />
        </mxCell>
        <mxCell id="UAQwls65sq5eITKKGj8J-102" style="edgeStyle=orthogonalEdgeStyle;rounded=0;orthogonalLoop=1;jettySize=auto;html=1;entryX=0.5;entryY=0;entryDx=0;entryDy=0;" edge="1" parent="1" source="UAQwls65sq5eITKKGj8J-104" target="UAQwls65sq5eITKKGj8J-109">
          <mxGeometry relative="1" as="geometry" />
        </mxCell>
        <mxCell id="UAQwls65sq5eITKKGj8J-103" value="controller-proda.brighter.ai/health" style="edgeLabel;html=1;align=center;verticalAlign=middle;resizable=0;points=[];" vertex="1" connectable="0" parent="UAQwls65sq5eITKKGj8J-102">
          <mxGeometry x="-0.1872" y="2" relative="1" as="geometry">
            <mxPoint x="-2" y="-33" as="offset" />
          </mxGeometry>
        </mxCell>
        <mxCell id="UAQwls65sq5eITKKGj8J-104" value="Health Check Prod A" style="rounded=1;whiteSpace=wrap;html=1;" vertex="1" parent="1">
          <mxGeometry x="1560" y="1360" width="120" height="60" as="geometry" />
        </mxCell>
        <mxCell id="UAQwls65sq5eITKKGj8J-105" style="edgeStyle=orthogonalEdgeStyle;rounded=0;orthogonalLoop=1;jettySize=auto;html=1;entryX=0.5;entryY=0;entryDx=0;entryDy=0;" edge="1" parent="1" source="UAQwls65sq5eITKKGj8J-107" target="UAQwls65sq5eITKKGj8J-111">
          <mxGeometry relative="1" as="geometry" />
        </mxCell>
        <mxCell id="UAQwls65sq5eITKKGj8J-106" value="controller-prodb.brighter.ai/health" style="edgeLabel;html=1;align=center;verticalAlign=middle;resizable=0;points=[];" vertex="1" connectable="0" parent="UAQwls65sq5eITKKGj8J-105">
          <mxGeometry x="-0.1744" y="1" relative="1" as="geometry">
            <mxPoint x="-1" y="-14" as="offset" />
          </mxGeometry>
        </mxCell>
        <mxCell id="UAQwls65sq5eITKKGj8J-107" value="Health Check Prod B" style="rounded=1;whiteSpace=wrap;html=1;" vertex="1" parent="1">
          <mxGeometry x="1720" y="1360" width="120" height="60" as="geometry" />
        </mxCell>
        <mxCell id="UAQwls65sq5eITKKGj8J-108" value="" style="edgeStyle=orthogonalEdgeStyle;rounded=0;orthogonalLoop=1;jettySize=auto;html=1;" edge="1" parent="1" source="UAQwls65sq5eITKKGj8J-109" target="UAQwls65sq5eITKKGj8J-117">
          <mxGeometry relative="1" as="geometry" />
        </mxCell>
        <mxCell id="UAQwls65sq5eITKKGj8J-109" value="Prod A Ingress" style="rounded=1;whiteSpace=wrap;html=1;fillColor=none;dashed=1;" vertex="1" parent="1">
          <mxGeometry x="1560" y="1600" width="120" height="60" as="geometry" />
        </mxCell>
        <mxCell id="UAQwls65sq5eITKKGj8J-110" value="" style="edgeStyle=orthogonalEdgeStyle;rounded=0;orthogonalLoop=1;jettySize=auto;html=1;" edge="1" parent="1" source="UAQwls65sq5eITKKGj8J-111" target="UAQwls65sq5eITKKGj8J-118">
          <mxGeometry relative="1" as="geometry" />
        </mxCell>
        <mxCell id="UAQwls65sq5eITKKGj8J-111" value="Prod B Ingress" style="rounded=1;whiteSpace=wrap;html=1;" vertex="1" parent="1">
          <mxGeometry x="1720" y="1600" width="120" height="60" as="geometry" />
        </mxCell>
        <mxCell id="UAQwls65sq5eITKKGj8J-112" style="edgeStyle=orthogonalEdgeStyle;rounded=0;orthogonalLoop=1;jettySize=auto;html=1;entryX=0.5;entryY=0;entryDx=0;entryDy=0;" edge="1" parent="1" source="UAQwls65sq5eITKKGj8J-114" target="UAQwls65sq5eITKKGj8J-107">
          <mxGeometry relative="1" as="geometry">
            <Array as="points">
              <mxPoint x="1780" y="1290" />
            </Array>
          </mxGeometry>
        </mxCell>
        <mxCell id="UAQwls65sq5eITKKGj8J-113" style="edgeStyle=orthogonalEdgeStyle;rounded=0;orthogonalLoop=1;jettySize=auto;html=1;" edge="1" parent="1" source="UAQwls65sq5eITKKGj8J-114" target="UAQwls65sq5eITKKGj8J-104">
          <mxGeometry relative="1" as="geometry">
            <Array as="points">
              <mxPoint x="1620" y="1290" />
            </Array>
          </mxGeometry>
        </mxCell>
        <mxCell id="UAQwls65sq5eITKKGj8J-114" value="Load Balancer" style="rounded=1;whiteSpace=wrap;html=1;" vertex="1" parent="1">
          <mxGeometry x="1640" y="1260" width="120" height="60" as="geometry" />
        </mxCell>
        <mxCell id="UAQwls65sq5eITKKGj8J-115" value="" style="verticalLabelPosition=bottom;verticalAlign=top;html=1;shape=mxgraph.basic.tick;fillColor=#d5e8d4;strokeColor=#82b366;" vertex="1" parent="1">
          <mxGeometry x="1730" y="1520" width="40" height="40" as="geometry" />
        </mxCell>
        <mxCell id="UAQwls65sq5eITKKGj8J-116" value="" style="verticalLabelPosition=bottom;verticalAlign=top;html=1;shape=mxgraph.basic.x;fillColor=#f8cecc;strokeColor=#b85450;" vertex="1" parent="1">
          <mxGeometry x="1570" y="1520" width="40" height="40" as="geometry" />
        </mxCell>
        <mxCell id="UAQwls65sq5eITKKGj8J-117" value="Prod A Workloads" style="rounded=1;whiteSpace=wrap;html=1;fillColor=none;dashed=1;" vertex="1" parent="1">
          <mxGeometry x="1560" y="1700" width="120" height="60" as="geometry" />
        </mxCell>
        <mxCell id="UAQwls65sq5eITKKGj8J-118" value="Prod B Workloads" style="rounded=1;whiteSpace=wrap;html=1;" vertex="1" parent="1">
          <mxGeometry x="1720" y="1700" width="120" height="60" as="geometry" />
        </mxCell>
        <mxCell id="UAQwls65sq5eITKKGj8J-119" value="" style="verticalLabelPosition=bottom;verticalAlign=top;html=1;shape=mxgraph.basic.tick;fillColor=#d5e8d4;strokeColor=#82b366;" vertex="1" parent="1">
          <mxGeometry x="1290" y="1520" width="40" height="40" as="geometry" />
        </mxCell>
        <mxCell id="UAQwls65sq5eITKKGj8J-120" value="" style="verticalLabelPosition=bottom;verticalAlign=top;html=1;shape=mxgraph.basic.x;fillColor=#f8cecc;strokeColor=#b85450;" vertex="1" parent="1">
          <mxGeometry x="1130" y="1520" width="40" height="40" as="geometry" />
        </mxCell>
        <mxCell id="UAQwls65sq5eITKKGj8J-121" value="" style="sketch=0;html=1;aspect=fixed;strokeColor=none;shadow=0;fillColor=#3B8DF1;verticalAlign=top;labelPosition=center;verticalLabelPosition=bottom;shape=mxgraph.gcp2.loading_2" vertex="1" parent="1">
          <mxGeometry x="1222" y="1680" width="37.2" height="40" as="geometry" />
        </mxCell>
      </root>
    </mxGraphModel>
  </diagram>
</mxfile>
